<?xml version="1.0" encoding="UTF-8" standalone="no"?>
<!DOCTYPE svg PUBLIC "-//W3C//DTD SVG 1.1//EN" "http://www.w3.org/Graphics/SVG/1.1/DTD/svg11.dtd">
<svg xmlns="http://www.w3.org/2000/svg" version="1.1" viewBox="0.00 0.00 112.00 112.00">
<rect fill="#22c55e" x="-6.68" y="-6.67" transform="translate(56.00,9.38) rotate(45.0)" width="13.36" height="13.34" rx="0.63"/>
<path fill="#22c55e" d="
  M 78.96 42.42
  L 32.96 88.42
  A 0.47 0.47 0.0 0 1 32.30 88.42
  L 0.24 56.40
  A 0.47 0.47 0.0 0 1 0.24 55.74
  L 36.99 18.98
  A 0.47 0.47 0.0 0 1 37.65 18.98
  L 46.39 27.75
  A 0.47 0.47 0.0 0 1 46.39 28.41
  L 19.11 55.67
  A 0.47 0.47 0.0 0 0 19.11 56.33
  L 32.38 69.58
  A 0.47 0.47 0.0 0 0 33.04 69.58
  L 79.02 23.58
  A 0.47 0.47 0.0 0 1 79.68 23.58
  L 111.69 55.68
  A 0.47 0.47 0.0 0 1 111.69 56.34
  L 75.02 93.00
  A 0.47 0.47 0.0 0 1 74.36 93.00
  L 65.62 84.27
  A 0.47 0.47 0.0 0 1 65.62 83.61
  L 92.88 56.34
  A 0.47 0.47 0.0 0 0 92.88 55.68
  L 79.62 42.42
  A 0.47 0.47 0.0 0 0 78.96 42.42
  Z"
/>
<rect fill="#22c55e" x="-6.68" y="-6.71" transform="translate(56.02,102.65) rotate(-45.0)" width="13.36" height="13.42" rx="0.61"/>
</svg>
